<svg width="192" height="40" viewBox="0 0 192 40" fill="none" xmlns="http://www.w3.org/2000/svg">
<path d="M20.9067 22.8774C21.1506 27.0308 24.7507 27.5602 28.1069 31.0502C33.0723 36.0393 37.0674 34.5576 37.7461 30.959C38.3877 27.5016 34.8962 25.0342 34.6656 21.3385C34.435 17.6428 37.717 14.3013 36.7149 11.0004C35.7128 7.6994 31.5772 7.17506 27.1791 13.2389C24.2099 17.4227 20.7874 18.7581 20.9067 22.8774Z" fill="#FCB62A"/>
<path d="M13.398 12.6392C16.2091 14.551 19.5552 13.8687 20.7453 11.7639C21.9354 9.65909 20.4972 5.96868 17.651 4.1902C14.8399 2.27835 11.4937 2.96074 10.3036 5.06552C9.14857 7.03694 10.5868 10.7274 13.398 12.6392Z" fill="#FF9F0E"/>
<path d="M6.44751 23.2975C9.76275 23.4456 12.7786 21.5423 13.1492 18.7649C13.4826 16.1288 11.0971 13.8105 7.6701 13.6318C4.35486 13.4837 1.33903 15.387 0.968443 18.1645C0.635011 20.8006 3.13228 23.1494 6.44751 23.2975Z" fill="#FCB62A"/>
<path d="M8.02448 36.5513C11.0372 36.6062 14.0455 34.4452 14.4587 31.639C14.8342 28.9762 12.9043 25.9995 9.79067 25.9171C6.77793 25.8622 3.76961 28.0232 3.35645 30.8294C2.98096 33.4922 5.01174 36.4964 8.02448 36.5513Z" fill="#FFAA00"/>
<path d="M47.5648 32V14.496L46.9248 11.296L47.5648 9.344H58.4128C59.9274 9.344 61.3888 9.49333 62.7968 9.792C64.2261 10.0693 65.4954 10.6027 66.6048 11.392C67.7354 12.1813 68.6314 13.312 69.2928 14.784C69.9541 16.256 70.2848 18.1653 70.2848 20.512C70.2848 22.8587 69.9434 24.7893 69.2608 26.304C68.5994 27.7973 67.7034 28.96 66.5728 29.792C65.4421 30.624 64.1728 31.2 62.7648 31.52C61.3568 31.84 59.9061 32 58.4128 32H47.5648ZM54.6688 25.92H57.1008C58.3594 25.92 59.4154 25.7813 60.2688 25.504C61.1434 25.2267 61.8048 24.704 62.2528 23.936C62.7008 23.1467 62.9248 22.0053 62.9248 20.512C62.9248 18.9973 62.6901 17.888 62.2208 17.184C61.7728 16.4587 61.1114 15.9893 60.2368 15.776C59.3834 15.5413 58.3381 15.424 57.1008 15.424H54.6688V25.92ZM84.1753 32.32C82.8099 32.32 81.4446 32.16 80.0793 31.84C78.7353 31.4987 77.4979 30.9013 76.3673 30.048C75.2579 29.1947 74.3619 28.0107 73.6793 26.496C72.9966 24.9813 72.6553 23.04 72.6553 20.672C72.6553 18.304 72.9966 16.3627 73.6793 14.848C74.3619 13.3333 75.2579 12.1493 76.3673 11.296C77.4979 10.4427 78.7353 9.856 80.0793 9.536C81.4446 9.19467 82.8099 9.024 84.1753 9.024C85.5406 9.024 86.8953 9.19467 88.2393 9.536C89.6046 9.87733 90.8419 10.4747 91.9513 11.328C93.0819 12.1813 93.9886 13.3653 94.6713 14.88C95.3539 16.3947 95.6953 18.3253 95.6953 20.672C95.6953 23.0187 95.3539 24.9493 94.6713 26.464C93.9886 27.9787 93.0819 29.1627 91.9513 30.016C90.8419 30.8693 89.6046 31.4667 88.2393 31.808C86.8953 32.1493 85.5406 32.32 84.1753 32.32ZM84.1753 25.92C85.5619 25.92 86.6073 25.504 87.3113 24.672C88.0153 23.8187 88.3673 22.4853 88.3673 20.672C88.3673 18.88 88.0153 17.5573 87.3113 16.704C86.6073 15.8507 85.5619 15.424 84.1753 15.424C81.4019 15.424 80.0153 17.1733 80.0153 20.672C80.0153 22.464 80.3566 23.7867 81.0393 24.64C81.7433 25.4933 82.7886 25.92 84.1753 25.92ZM110.674 32.32C108.818 32.32 107.111 32.16 105.554 31.84C103.997 31.4987 102.642 30.9013 101.49 30.048C100.338 29.1947 99.442 28.0107 98.802 26.496C98.1833 24.9813 97.874 23.04 97.874 20.672C97.874 18.3253 98.2047 16.3947 98.866 14.88C99.5273 13.3653 100.423 12.1813 101.554 11.328C102.706 10.4747 104.007 9.87733 105.458 9.536C106.909 9.19467 108.423 9.024 110.002 9.024C111.047 9.024 112.007 9.07733 112.882 9.184C113.757 9.29067 114.546 9.42933 115.25 9.6L119.602 12.128L117.362 17.76L110.29 15.616C109.373 15.616 108.53 15.7653 107.762 16.064C106.994 16.3413 106.375 16.8533 105.906 17.6C105.458 18.3253 105.234 19.36 105.234 20.704C105.234 22.752 105.671 24.192 106.546 25.024C107.442 25.8347 108.701 26.24 110.322 26.24C110.941 26.24 111.453 26.208 111.858 26.144C112.263 26.0587 112.605 25.9627 112.882 25.856V24.096H110.098V19.04H120.274L120.626 20.96L119.922 24.256V30.976C119.687 31.0613 119.154 31.2107 118.322 31.424C117.511 31.6373 116.455 31.84 115.154 32.032C113.853 32.224 112.359 32.32 110.674 32.32ZM130.992 32.24C129.888 32.24 128.816 32.112 127.776 31.856C126.752 31.6 125.832 31.152 125.016 30.512C124.2 29.872 123.552 28.984 123.072 27.848C122.592 26.712 122.352 25.264 122.352 23.504C122.352 21.92 122.584 20.576 123.048 19.472C123.512 18.352 124.144 17.448 124.944 16.76C125.744 16.072 126.664 15.568 127.704 15.248C128.744 14.928 129.84 14.768 130.992 14.768C131.808 14.768 132.6 14.832 133.368 14.96C134.152 15.088 134.72 15.232 135.072 15.392L137.976 17.816L135.576 21.776L130.992 19.664C130.448 19.664 129.936 19.816 129.456 20.12C128.992 20.408 128.608 20.84 128.304 21.416C128.016 21.976 127.872 22.672 127.872 23.504C127.872 24.56 128.032 25.376 128.352 25.952C128.688 26.512 129.16 26.896 129.768 27.104C130.392 27.312 131.128 27.416 131.976 27.416C132.792 27.416 133.56 27.336 134.28 27.176C135.016 27 135.664 26.8 136.224 26.576C136.784 26.352 137.208 26.16 137.496 26V30.8C137.176 30.96 136.72 31.16 136.128 31.4C135.552 31.624 134.832 31.824 133.968 32C133.12 32.16 132.128 32.24 130.992 32.24ZM140.612 32L140.132 30.56L140.612 28.16V15.008H145.892V24.152L145.652 27.44H146.132L150.428 27.2L152.132 26.96L154.244 30.464L153.068 32H140.612ZM162.882 32.24C160.082 32.24 158.066 31.68 156.834 30.56C155.602 29.424 154.986 27.608 154.986 25.112V18.872L155.01 16.448L154.986 15.008H160.362V23.912C160.362 24.648 160.418 25.304 160.53 25.88C160.642 26.44 160.882 26.88 161.25 27.2C161.618 27.52 162.178 27.68 162.93 27.68C163.698 27.68 164.266 27.536 164.634 27.248C165.002 26.96 165.242 26.536 165.354 25.976C165.466 25.416 165.522 24.728 165.522 23.912V15.008H170.778V25.112C170.778 26.744 170.514 28.088 169.986 29.144C169.458 30.184 168.618 30.96 167.466 31.472C166.314 31.984 164.786 32.24 162.882 32.24ZM173.894 32V18.848L173.414 16.448L173.894 15.008H183.014C184.822 15.008 186.27 15.36 187.358 16.064C188.446 16.768 188.99 17.84 188.99 19.28C188.99 20.064 188.846 20.712 188.558 21.224C188.286 21.72 187.934 22.144 187.502 22.496C188.046 22.624 188.558 22.864 189.038 23.216C189.518 23.552 189.91 24.008 190.214 24.584C190.518 25.144 190.67 25.84 190.67 26.672C190.67 28.352 190.174 29.664 189.182 30.608C188.206 31.536 186.63 32 184.454 32H173.894ZM179.174 21.608H182.006C182.55 21.608 182.942 21.528 183.182 21.368C183.422 21.192 183.542 20.928 183.542 20.576C183.542 20.208 183.366 19.952 183.014 19.808C182.662 19.648 182.246 19.568 181.766 19.568H179.174V21.608ZM179.174 27.44H183.254C183.894 27.44 184.342 27.344 184.598 27.152C184.854 26.944 184.982 26.672 184.982 26.336C184.982 25.568 184.486 25.184 183.494 25.184H179.174V27.44Z" fill="#FF9F0E"/>
</svg>
