<svg aria-hidden="true" style="position: absolute; width: 0; height: 0; overflow: hidden;" version="1.1" xmlns="http://www.w3.org/2000/svg" xmlns:xlink="http://www.w3.org/1999/xlink">
<defs>
<symbol id="icon-arrow" viewBox="0 0 34 32">
<path d="M0.586 17.414c-0.362-0.362-0.586-0.862-0.586-1.414s0.224-1.052 0.586-1.414l12.728-12.728c0.357-0.335 0.838-0.541 1.368-0.541 1.105 0 2 0.895 2 2 0 0.53-0.206 1.012-0.543 1.37l0.001-0.001-11.312 11.314 11.314 11.314c0.377 0.364 0.611 0.874 0.611 1.439 0 1.105-0.895 2-2 2-0.565 0-1.074-0.234-1.438-0.61l-0.001-0.001-12.728-12.728zM34 18h-32v-4h32v4z"></path>
</symbol>
<symbol id="icon-facebook" viewBox="0 0 32 32">
<path d="M29 16c0-7.18-5.82-13-13-13s-13 5.82-13 13c0 7.18 5.82 13 13 13v0c7.177-0.007 12.993-5.823 13-12.999v-0.001zM17 26.95v-7.95h3c0.552 0 1-0.448 1-1s-0.448-1-1-1v0h-3v-3c0-1.105 0.895-2 2-2v0h2c0.552 0 1-0.448 1-1s-0.448-1-1-1v0h-2c-2.206 0.007-3.993 1.794-4 3.999v3.001h-3c-0.552 0-1 0.448-1 1s0.448 1 1 1v0h3v7.95c-5.629-0.529-10-5.231-10-10.954 0-6.075 4.925-11 11-11s11 4.925 11 11c0 5.723-4.371 10.425-9.956 10.951l-0.044 0.003z"></path>
</symbol>
<symbol id="icon-instagram" viewBox="0 0 32 32">
<path d="M22.503 8.671c-0.8 0-1.445 0.645-1.445 1.445s0.645 1.445 1.445 1.445c0.8 0 1.445-0.645 1.445-1.445s-0.645-1.445-1.445-1.445zM16.052 10.529c-3.355 0-6.090 2.735-6.090 6.090s2.735 6.090 6.090 6.090 6.090-2.735 6.090-6.090-2.735-6.090-6.090-6.090zM16.052 20.542c-2.168 0-3.897-1.755-3.897-3.897 0-2.168 1.755-3.897 3.897-3.897 2.168 0 3.897 1.755 3.897 3.897s-1.755 3.897-3.897 3.897zM28.361 11.561c0-4.103-3.329-7.432-7.432-7.432h-9.832c-4.103 0-7.432 3.329-7.432 7.432v9.832c0 4.103 3.329 7.432 7.432 7.432h9.806c4.103 0 7.432-3.329 7.432-7.432v-9.832zM26.013 21.368c0 2.813-2.297 5.11-5.11 5.11h-9.806c-2.813 0-5.11-2.297-5.11-5.11v-9.806c0-2.839 2.271-5.11 5.11-5.11h9.806c2.813 0 5.11 2.297 5.11 5.11v9.806z"></path>
</symbol>
<symbol id="icon-shopping-bag" viewBox="0 0 31 32">
<path d="M29.751 12.878h-28.293v-2.082h28.293v2.082zM2.077 12.26v0.913h-2.082v-0.913h2.082zM5.436 29.528h20.339v2.082h-20.34v-2.082zM29.134 13.175v-0.914h2.081v0.913h-2.080zM25.188 29.891c2.488-4.87 3.946-10.623 3.946-16.717v0h2.081c0 6.127-1.425 12.169-4.166 17.649l-1.861-0.933zM25.775 29.529c-0.25 0-0.477 0.142-0.587 0.362l1.861 0.933c-0.24 0.47-0.72 0.786-1.274 0.786h-0v-2.082zM6.023 29.891c-0.11-0.216-0.331-0.362-0.586-0.362-0 0-0 0-0.001 0h0v2.081c-0.541 0-1.033-0.304-1.274-0.787l1.861-0.933zM2.077 13.175c0.001 6.093 1.459 11.846 4.044 16.929l-0.098-0.213-1.861 0.933c-2.627-5.142-4.167-11.216-4.167-17.649v-0h2.082zM1.459 12.878c0.341 0 0.618-0.276 0.618-0.617v-0h-2.082c0-0 0-0.001 0-0.001 0-0.808 0.655-1.463 1.463-1.463 0 0 0.001 0 0.001 0h-0v2.081zM29.751 10.797c0.808 0 1.463 0.655 1.463 1.463v0h-2.080c0 0.341 0.277 0.618 0.618 0.618v0-2.082zM23.038 12.373l-6.244-10.406 1.787-1.070 6.244 10.406-1.787 1.069zM14.417 1.966l-6.244 10.406-1.786-1.069 6.244-10.407 1.786 1.069zM20.809 21.203h-10.406v-2.082h10.406v2.082z"></path>
</symbol>
</defs>
</svg>
