<svg aria-hidden="true" style="position: absolute; width: 0; height: 0; overflow: hidden;" version="1.1" xmlns="http://www.w3.org/2000/svg" xmlns:xlink="http://www.w3.org/1999/xlink">
<defs>
<symbol id="icon-arrow" viewBox="0 0 34 32">
<path d="M0.586 17.414c-0.362-0.362-0.586-0.862-0.586-1.414s0.224-1.052 0.586-1.414l12.728-12.728c0.357-0.335 0.838-0.541 1.368-0.541 1.105 0 2 0.895 2 2 0 0.53-0.206 1.012-0.543 1.37l0.001-0.001-11.312 11.314 11.314 11.314c0.377 0.364 0.611 0.874 0.611 1.439 0 1.105-0.895 2-2 2-0.565 0-1.074-0.234-1.438-0.61l-0.001-0.001-12.728-12.728zM34 18h-32v-4h32v4z"></path>
</symbol>
<symbol id="icon-facebook" viewBox="0 0 32 32">
<path d="M29 16c0-7.18-5.82-13-13-13s-13 5.82-13 13c0 7.18 5.82 13 13 13v0c7.177-0.007 12.993-5.823 13-12.999v-0.001zM17 26.95v-7.95h3c0.552 0 1-0.448 1-1s-0.448-1-1-1v0h-3v-3c0-1.105 0.895-2 2-2v0h2c0.552 0 1-0.448 1-1s-0.448-1-1-1v0h-2c-2.206 0.007-3.993 1.794-4 3.999v3.001h-3c-0.552 0-1 0.448-1 1s0.448 1 1 1v0h3v7.95c-5.629-0.529-10-5.231-10-10.954 0-6.075 4.925-11 11-11s11 4.925 11 11c0 5.723-4.371 10.425-9.956 10.951l-0.044 0.003z"></path>
</symbol>
<symbol id="icon-instagram" viewBox="0 0 32 32">
<path d="M22.503 8.671c-0.8 0-1.445 0.645-1.445 1.445s0.645 1.445 1.445 1.445c0.8 0 1.445-0.645 1.445-1.445s-0.645-1.445-1.445-1.445zM16.052 10.529c-3.355 0-6.090 2.735-6.090 6.090s2.735 6.090 6.090 6.090 6.090-2.735 6.090-6.090-2.735-6.090-6.090-6.090zM16.052 20.542c-2.168 0-3.897-1.755-3.897-3.897 0-2.168 1.755-3.897 3.897-3.897 2.168 0 3.897 1.755 3.897 3.897s-1.755 3.897-3.897 3.897zM28.361 11.561c0-4.103-3.329-7.432-7.432-7.432h-9.832c-4.103 0-7.432 3.329-7.432 7.432v9.832c0 4.103 3.329 7.432 7.432 7.432h9.806c4.103 0 7.432-3.329 7.432-7.432v-9.832zM26.013 21.368c0 2.813-2.297 5.11-5.11 5.11h-9.806c-2.813 0-5.11-2.297-5.11-5.11v-9.806c0-2.839 2.271-5.11 5.11-5.11h9.806c2.813 0 5.11 2.297 5.11 5.11v9.806z"></path>
</symbol>
<symbol id="icon-shopping-bag" viewBox="0 0 32 32">
<path d="M29.751 12.878h-28.293v-2.082h28.293v2.082zM2.077 12.26v0.913h-2.082v-0.913h2.082zM5.436 29.528h20.339v2.082h-20.34v-2.082zM29.134 13.175v-0.914h2.081v0.913h-2.080zM25.188 29.891c2.488-4.87 3.946-10.623 3.946-16.717v0h2.081c0 6.127-1.425 12.169-4.166 17.649l-1.861-0.933zM25.775 29.529c-0.25 0-0.477 0.142-0.587 0.362l1.861 0.933c-0.24 0.47-0.72 0.786-1.274 0.786h-0v-2.082zM6.023 29.891c-0.11-0.216-0.331-0.362-0.586-0.362-0 0-0 0-0.001 0h0v2.081c-0.541 0-1.033-0.304-1.274-0.787l1.861-0.933zM2.077 13.175c0.001 6.093 1.459 11.846 4.044 16.929l-0.098-0.213-1.861 0.933c-2.627-5.142-4.167-11.216-4.167-17.649v-0h2.082zM1.459 12.878c0.341 0 0.618-0.276 0.618-0.617v-0h-2.082c0-0 0-0.001 0-0.001 0-0.808 0.655-1.463 1.463-1.463 0 0 0.001 0 0.001 0h-0v2.081zM29.751 10.797c0.808 0 1.463 0.655 1.463 1.463v0h-2.080c0 0.341 0.277 0.618 0.618 0.618v0-2.082zM23.038 12.373l-6.244-10.406 1.787-1.070 6.244 10.406-1.787 1.069zM14.417 1.966l-6.244 10.406-1.786-1.069 6.244-10.407 1.786 1.069zM20.809 21.203h-10.406v-2.082h10.406v2.082z"></path>
</symbol>
<symbol id="icon-close" viewBox="0 0 32 32">
<path d="M31.621 0.379c-0.505-0.505-1.323-0.505-1.828 0l-29.415 29.415c-0.505 0.505-0.505 1.323 0 1.828 0.233 0.234 0.556 0.379 0.912 0.379 0.001 0 0.001 0 0.002 0h-0c0 0 0.001 0 0.002 0 0.356 0 0.679-0.145 0.912-0.379l29.415-29.415c0.505-0.505 0.505-1.323 0-1.828z"></path>
<path d="M31.621 29.793l-29.415-29.415c-0.505-0.505-1.323-0.505-1.828 0s-0.505 1.323 0 1.828l29.415 29.415c0.233 0.234 0.556 0.379 0.912 0.379 0.001 0 0.001 0 0.002 0h-0c0.001 0 0.001 0 0.002 0 0.356 0 0.679-0.145 0.912-0.379l0-0c0.505-0.505 0.505-1.323-0-1.828z"></path>
</symbol>
<symbol id="icon-modal-your-name" viewBox="0 0 32 32">
<path d="M11.384 9.714c0-1.125 0.446-2.204 1.24-3 0.766-0.767 1.825-1.242 2.995-1.242s2.229 0.475 2.995 1.242l0 0c0.767 0.768 1.241 1.829 1.241 3s-0.474 2.232-1.241 3l0-0c-0.766 0.767-1.825 1.242-2.995 1.242s-2.229-0.475-2.995-1.242l-0-0c-0.766-0.768-1.24-1.828-1.24-2.999 0-0 0-0.001 0-0.001v0zM15.619 3.048c-1.838 0-3.502 0.746-4.706 1.952l-0 0c-1.205 1.207-1.95 2.873-1.95 4.714s0.745 3.507 1.95 4.714l-0-0c1.204 1.206 2.868 1.951 4.706 1.951s3.502-0.746 4.706-1.951l0-0c1.205-1.207 1.95-2.873 1.95-4.714s-0.745-3.507-1.95-4.714l0 0c-1.204-1.206-2.868-1.952-4.706-1.952h-0zM5.333 22.44c0-0.964 0.383-1.889 1.064-2.57 0.656-0.658 1.564-1.066 2.567-1.066h13.31c0.963 0 1.887 0.383 2.567 1.065 0.657 0.659 1.064 1.568 1.064 2.572 0 0 0 0 0 0v-0 0.273c-0.003 0.114-0.010 0.226-0.024 0.339-0.025 0.21-0.070 0.494-0.158 0.831-0.25 0.937-0.666 1.755-1.22 2.46l0.011-0.015c-1.415 1.82-4.079 3.384-8.895 3.384s-7.478-1.563-8.895-3.384c-0.543-0.69-0.96-1.508-1.199-2.398l-0.011-0.047c-0.086-0.316-0.149-0.688-0.176-1.069l-0.001-0.019c-0.001-0.023-0.002-0.051-0.002-0.080l-0-0.002v-0.027l-0.002-0.010v-0.236zM7.753 22.656v0.015c0.017 0.204 0.052 0.406 0.103 0.604 0.11 0.421 0.33 0.991 0.776 1.564 0.853 1.096 2.728 2.45 6.987 2.45s6.135-1.354 6.987-2.448c0.362-0.464 0.625-0.997 0.775-1.566 0.052-0.198 0.086-0.4 0.104-0.604v-0.229c0 0 0 0 0 0 0-0.669-0.541-1.211-1.21-1.213h-13.31c0 0 0 0 0 0-0.668 0-1.21 0.542-1.21 1.21 0 0.001 0 0.002 0 0.003v-0 0.215z"></path>
</symbol>
<symbol id="icon-modal-pet-name" viewBox="0 0 32 32">
<path d="M6.467 29.333v-12.8l-0.367-0.366c-0.24-0.241-0.432-0.529-0.561-0.85l-0.006-0.017c-0.127-0.305-0.2-0.66-0.2-1.031 0-0.001 0-0.001 0-0.002v0c-0-0.003-0-0.007-0-0.011 0-0.724 0.293-1.38 0.767-1.856l-0 0 4.367-4.4h5.333l5.333-5.333 2.734 2.733c0.851 0.845 1.547 1.845 2.041 2.954l0.025 0.062c0.464 1.042 0.734 2.257 0.734 3.535 0 0.017-0 0.034-0 0.051v-0.003c0 0.014 0 0.032 0 0.049 0 1.278-0.27 2.494-0.757 3.592l0.022-0.057c-0.519 1.171-1.215 2.171-2.065 3.015l-0.001 0.001-2.734 2.733v8h-14.666zM9.133 26.667h9.334v-6.434l3.5-3.5c0.614-0.608 1.119-1.326 1.482-2.121l0.018-0.045c0.355-0.8 0.533-1.656 0.533-2.567 0-0.889-0.183-1.733-0.55-2.533-0.389-0.836-0.886-1.552-1.486-2.169l0.002 0.002-0.834-0.867-4.233 4.234h-5.333l-0.767 0.766 2.233 2.234c0.603 0.6 1.092 1.313 1.434 2.105l0.017 0.044c0.326 0.747 0.516 1.617 0.516 2.532 0 0.006 0 0.013-0 0.019v-0.001c0 0.89-0.167 1.74-0.5 2.551-0.357 0.85-0.853 1.576-1.466 2.182l-0.001 0.001-3.9-3.9v7.467z"></path>
</symbol>
<symbol id="icon-modal-your-phone" viewBox="0 0 32 32">
<path d="M27.833 29.333c-3.466 0-6.727-0.655-9.782-1.966-3.056-1.312-5.723-3.106-8-5.383-2.279-2.278-4.079-4.945-5.4-8-1.323-3.056-1.984-6.328-1.984-9.817-0.023-0.4 0.11-0.75 0.4-1.051 0.289-0.3 0.644-0.45 1.066-0.45h5.2c0.4 0 0.745 0.15 1.034 0.45s0.433 0.662 0.433 1.084c0 0.978 0.067 1.9 0.2 2.767s0.345 1.689 0.633 2.466c0.112 0.245 0.134 0.495 0.067 0.75s-0.2 0.495-0.4 0.717l-3.333 3.333c0.955 1.956 2.31 3.811 4.066 5.567 1.756 1.755 3.645 3.155 5.667 4.2l3.333-3.333c0.2-0.2 0.434-0.334 0.7-0.4 0.267-0.067 0.534-0.045 0.8 0.066 0.823 0.267 1.672 0.472 2.55 0.616 0.878 0.145 1.784 0.218 2.717 0.218 0.422 0 0.784 0.155 1.084 0.466s0.45 0.69 0.45 1.134v5.1c0 0.4-0.145 0.744-0.434 1.033-0.263 0.268-0.629 0.433-1.034 0.433-0.012 0-0.023-0-0.035-0l0.002 0zM20.167 25.333c1 0.378 2.044 0.678 3.133 0.9 1.089 0.223 2.211 0.367 3.367 0.434v-2.867c-0.81-0.054-1.537-0.137-2.254-0.251l0.138 0.018c-0.827-0.129-1.553-0.303-2.255-0.529l0.104 0.029-2.233 2.266zM26.667 16c0-2.978-1.034-5.5-3.1-7.567-2.067-2.066-4.59-3.1-7.567-3.1v-2.666c1.845 0 3.578 0.35 5.2 1.049 1.622 0.7 3.033 1.65 4.233 2.85s2.15 2.612 2.85 4.234c0.7 1.622 1.050 3.355 1.050 5.2h-2.666zM21.333 16c0-1.467-0.522-2.722-1.566-3.767s-2.3-1.566-3.767-1.566v-2.667c2.222 0 4.111 0.778 5.667 2.333 1.555 1.557 2.333 3.445 2.333 5.667h-2.667zM6.667 11.767l2.2-2.234c-0.153-0.523-0.31-1.208-0.432-1.906l-0.019-0.127c-0.111-0.61-0.2-1.354-0.247-2.11l-0.003-0.057h-2.8c0.045 1.067 0.178 2.134 0.4 3.2s0.523 2.145 0.9 3.234z"></path>
</symbol>
<symbol id="icon-modal-your-email" viewBox="0 0 32 32">
<path d="M16 29.333c-1.822 0-3.544-0.35-5.167-1.050-1.65-0.713-3.060-1.68-4.249-2.867l0 0c-1.187-1.189-2.154-2.599-2.833-4.163l-0.034-0.087c-0.664-1.503-1.050-3.255-1.050-5.097 0-0.024 0-0.049 0-0.073l-0 0.004c0-1.845 0.35-3.572 1.050-5.183 0.716-1.644 1.682-3.048 2.867-4.233l-0 0c1.189-1.187 2.599-2.154 4.163-2.834l0.087-0.034c1.622-0.7 3.344-1.050 5.166-1.050 1.844 0 3.572 0.35 5.183 1.050 1.644 0.717 3.047 1.683 4.233 2.868l-0-0c1.185 1.185 2.151 2.589 2.833 4.146l0.034 0.087c0.7 1.611 1.050 3.338 1.050 5.183v1.933c0 1.311-0.45 2.428-1.349 3.35s-2.006 1.384-3.317 1.384c-0.8 0-1.545-0.178-2.234-0.534-0.678-0.347-1.245-0.818-1.692-1.389l-0.008-0.011c-1.199 1.195-2.853 1.934-4.68 1.934-0.019 0-0.037-0-0.056-0l0.003 0c-1.845 0-3.416-0.65-4.716-1.951-1.3-1.3-1.95-2.872-1.95-4.716s0.65-3.417 1.95-4.717 2.871-1.95 4.716-1.95c1.844 0 3.417 0.65 4.717 1.95s1.95 2.873 1.95 4.717v1.933c0 0.645 0.2 1.15 0.6 1.516 0.4 0.367 0.866 0.551 1.4 0.551s1-0.184 1.4-0.55c0.4-0.367 0.6-0.872 0.6-1.517v-1.933c0-2.911-1.050-5.417-3.151-7.517s-4.605-3.15-7.516-3.15-5.417 1.050-7.517 3.15c-2.1 2.1-3.15 4.606-3.15 7.517s1.050 5.416 3.15 7.516c2.1 2.1 4.606 3.15 7.517 3.15h6.667v2.667h-6.667zM16 20c1.111 0 2.055-0.389 2.833-1.167 0.778-0.777 1.167-1.722 1.167-2.833s-0.389-2.056-1.167-2.833c-0.777-0.778-1.722-1.167-2.833-1.167s-2.056 0.389-2.833 1.167c-0.778 0.777-1.167 1.722-1.167 2.833s0.389 2.055 1.167 2.833c0.777 0.778 1.722 1.167 2.833 1.167z"></path>
</symbol>
</defs>
<symbol id="icon-menu" viewBox="0 0 32 32">
<path d="M29.333 26.007c0 0.733-0.595 1.327-1.327 1.327h-10.68c-0.733 0-1.327-0.594-1.327-1.327s0.594-1.327 1.327-1.327h10.68c0.733 0 1.327 0.593 1.327 1.327zM29.333 18c0 0.733-0.595 1.327-1.327 1.327h-24.013c-0.733 0-1.327-0.594-1.327-1.327s0.594-1.327 1.327-1.327h24.013c0.733 0 1.327 0.595 1.327 1.327zM28.007 11.32c0.733 0 1.327-0.594 1.327-1.327s-0.594-1.327-1.327-1.327h-16.013c-0.733 0-1.327 0.594-1.327 1.327s0.594 1.327 1.327 1.327h16.013z"></path>
</symbol>
<symbol id="icon-close-button" viewBox="0 0 24 24">
 <path d="M18 6 L6 18 M6 6 L18 18" />
</symbol>
</svg>
