<svg width="73" height="72" viewBox="0 0 73 72" fill="none" xmlns="http://www.w3.org/2000/svg">
<path d="M0.170582 30.6287C0.170582 30.6287 -3.18841 13.0172 19.9046 2.31169C42.9977 -8.39385 87.7142 23.4849 68.1901 46.5613C48.666 69.6376 37.9592 78.44 19.9046 67.0207C1.85007 55.6014 0.170582 30.6287 0.170582 30.6287Z" fill="#839AA9"/>
<path d="M41.1068 26.5653C41.0927 26.7125 41.003 26.8736 40.7963 27.0372C38.7689 28.6419 36.7415 30.2466 34.7142 31.8512C34.2813 32.1938 33.2542 32.2735 33.2542 31.4675C33.2542 28.4983 33.2542 25.529 33.2542 22.5598C33.2542 21.8304 34.3567 21.6506 34.7979 21.9476C36.8252 23.3122 38.8526 24.6768 40.8799 26.0413C41.1121 26.1976 41.163 26.3849 41.1068 26.5653ZM48 29.0962C47.3575 44.4643 21.3966 41.2806 24.2136 25.103C25.3956 18.3149 31.0462 14.745 37.2546 15.1752C44.2429 15.6594 47.8728 22.0007 47.9994 28.9945C47.9997 29.0121 47.9882 29.0268 47.9859 29.0438C47.9884 29.0628 48.0008 29.0749 48 29.0962ZM46.6972 29.2951C46.5918 24.3446 44.8319 18.998 40.2911 16.8701C34.2727 14.0499 27.182 17.3761 25.6526 24.2304C24.2847 30.3609 27.3267 35.7964 32.8929 37.7624C38.8265 39.8582 46.373 36.5603 46.6972 29.2951Z" fill="white"/>
<path d="M20.0117 53.6515V54.0616H17.0625V53.6515H20.0117ZM17.2031 48.3741V54.0616H16.7227V48.3741H17.2031ZM22.4648 54.1398C22.1888 54.1398 21.9349 54.089 21.7031 53.9874C21.474 53.8859 21.2734 53.7426 21.1016 53.5577C20.9323 53.3728 20.8008 53.1541 20.707 52.9015C20.6159 52.6463 20.5703 52.3676 20.5703 52.0656V51.8976C20.5703 51.5721 20.6185 51.2778 20.7148 51.0148C20.8112 50.7517 20.944 50.5265 21.1133 50.339C21.2826 50.1515 21.4753 50.0083 21.6914 49.9093C21.9102 49.8077 22.1393 49.757 22.3789 49.757C22.6471 49.757 22.8854 49.8051 23.0938 49.9015C23.3021 49.9952 23.4766 50.1294 23.6172 50.3038C23.7604 50.4757 23.8685 50.6801 23.9414 50.9171C24.0143 51.1515 24.0508 51.4106 24.0508 51.6945V51.9796H20.8516V51.5812H23.5859V51.5265C23.5807 51.2895 23.5326 51.0682 23.4414 50.8624C23.3529 50.6541 23.2201 50.4848 23.043 50.3546C22.8659 50.2244 22.6445 50.1593 22.3789 50.1593C22.181 50.1593 21.9987 50.201 21.832 50.2843C21.668 50.3676 21.526 50.4874 21.4062 50.6437C21.2891 50.7973 21.1979 50.9809 21.1328 51.1945C21.0703 51.4054 21.0391 51.6398 21.0391 51.8976V52.0656C21.0391 52.2999 21.0729 52.5187 21.1406 52.7218C21.2109 52.9223 21.3099 53.0994 21.4375 53.2531C21.5677 53.4067 21.7214 53.5265 21.8984 53.6124C22.0755 53.6984 22.2708 53.7413 22.4844 53.7413C22.7344 53.7413 22.9557 53.6958 23.1484 53.6046C23.3411 53.5109 23.5143 53.3637 23.668 53.1632L23.9609 53.3898C23.8698 53.5252 23.7552 53.6502 23.6172 53.7648C23.4818 53.8794 23.319 53.9705 23.1289 54.0382C22.9388 54.1059 22.7174 54.1398 22.4648 54.1398ZM27.543 53.3038V51.1241C27.543 50.9236 27.5013 50.7504 27.418 50.6046C27.3346 50.4588 27.2122 50.3468 27.0508 50.2687C26.8893 50.1906 26.6901 50.1515 26.4531 50.1515C26.2344 50.1515 26.0391 50.1906 25.8672 50.2687C25.6979 50.3442 25.5638 50.4471 25.4648 50.5773C25.3685 50.7049 25.3203 50.8468 25.3203 51.0031L24.8516 50.9991C24.8516 50.8403 24.8906 50.6866 24.9688 50.5382C25.0469 50.3898 25.1576 50.257 25.3008 50.1398C25.444 50.0226 25.6146 49.9301 25.8125 49.8624C26.013 49.7921 26.2331 49.757 26.4727 49.757C26.7747 49.757 27.0404 49.8077 27.2695 49.9093C27.5013 50.0109 27.6823 50.1632 27.8125 50.3663C27.9427 50.5695 28.0078 50.8247 28.0078 51.132V53.1749C28.0078 53.3208 28.0182 53.4718 28.0391 53.6281C28.0625 53.7843 28.0951 53.9132 28.1367 54.0148V54.0616H27.6406C27.6094 53.9679 27.5846 53.8507 27.5664 53.7101C27.5508 53.5669 27.543 53.4314 27.543 53.3038ZM27.6523 51.6007L27.6602 51.9601H26.7422C26.5026 51.9601 26.2878 51.9822 26.0977 52.0265C25.9102 52.0682 25.7513 52.1307 25.6211 52.214C25.4909 52.2947 25.3906 52.3924 25.3203 52.507C25.2526 52.6215 25.2188 52.7517 25.2188 52.8976C25.2188 53.0486 25.2565 53.1866 25.332 53.3116C25.4102 53.4366 25.5195 53.5369 25.6602 53.6124C25.8034 53.6853 25.9727 53.7218 26.168 53.7218C26.4284 53.7218 26.6576 53.6736 26.8555 53.5773C27.056 53.4809 27.2214 53.3546 27.3516 53.1984C27.4818 53.0421 27.569 52.8715 27.6133 52.6866L27.8164 52.9562C27.7826 53.0864 27.7201 53.2205 27.6289 53.3585C27.5404 53.4939 27.4245 53.6215 27.2812 53.7413C27.138 53.8585 26.9688 53.9549 26.7734 54.0304C26.5807 54.1033 26.362 54.1398 26.1172 54.1398C25.8411 54.1398 25.6003 54.0877 25.3945 53.9835C25.1914 53.8794 25.0326 53.7374 24.918 53.5577C24.806 53.3754 24.75 53.1697 24.75 52.9406C24.75 52.7322 24.7943 52.546 24.8828 52.382C24.9714 52.2153 25.099 52.0747 25.2656 51.9601C25.4349 51.8429 25.638 51.7544 25.875 51.6945C26.1146 51.632 26.3828 51.6007 26.6797 51.6007H27.6523ZM29.7266 50.5343V54.0616H29.2617V49.8351H29.7148L29.7266 50.5343ZM31.2227 49.8038L31.2109 50.2335C31.1589 50.2257 31.1081 50.2192 31.0586 50.214C31.0091 50.2088 30.9557 50.2062 30.8984 50.2062C30.6953 50.2062 30.5169 50.2439 30.3633 50.3195C30.2122 50.3924 30.0846 50.4952 29.9805 50.6281C29.8763 50.7583 29.7969 50.9119 29.7422 51.089C29.6875 51.2635 29.6562 51.451 29.6484 51.6515L29.4766 51.7179C29.4766 51.4419 29.5052 51.1853 29.5625 50.9484C29.6198 50.7114 29.707 50.5044 29.8242 50.3273C29.944 50.1476 30.0938 50.0083 30.2734 49.9093C30.4557 49.8077 30.6693 49.757 30.9141 49.757C30.974 49.757 31.0326 49.7622 31.0898 49.7726C31.1497 49.7804 31.194 49.7908 31.2227 49.8038ZM32.4219 50.7374V54.0616H31.957V49.8351H32.4023L32.4219 50.7374ZM32.3164 51.6866L32.1094 51.5695C32.125 51.3195 32.1758 51.0851 32.2617 50.8663C32.3477 50.6476 32.4635 50.4549 32.6094 50.2882C32.7578 50.1215 32.931 49.9913 33.1289 49.8976C33.3294 49.8038 33.5508 49.757 33.793 49.757C34.0039 49.757 34.1927 49.7856 34.3594 49.8429C34.526 49.9002 34.668 49.9913 34.7852 50.1163C34.9023 50.2413 34.9909 50.4015 35.0508 50.5968C35.1133 50.7921 35.1445 51.0304 35.1445 51.3116V54.0616H34.6758V51.3077C34.6758 51.0161 34.6354 50.7882 34.5547 50.6241C34.474 50.4575 34.3594 50.339 34.2109 50.2687C34.0625 50.1984 33.8867 50.1632 33.6836 50.1632C33.4596 50.1632 33.263 50.2127 33.0938 50.3116C32.9271 50.408 32.7865 50.5343 32.6719 50.6906C32.5599 50.8442 32.474 51.0096 32.4141 51.1866C32.3542 51.3611 32.3216 51.5278 32.3164 51.6866ZM38.75 50.7101V54.0616H38.2812V49.8351H38.7305L38.75 50.7101ZM38.6641 51.6866L38.4375 51.5695C38.4531 51.3195 38.5 51.0851 38.5781 50.8663C38.6589 50.6476 38.7708 50.4549 38.9141 50.2882C39.0573 50.1215 39.2292 49.9913 39.4297 49.8976C39.6302 49.8038 39.8581 49.757 40.1133 49.757C40.319 49.757 40.5052 49.7856 40.6719 49.8429C40.8411 49.8976 40.9844 49.9848 41.1016 50.1046C41.2214 50.2218 41.3138 50.3754 41.3789 50.5656C41.444 50.7557 41.4766 50.9835 41.4766 51.2491V54.0616H41.0117V51.2648C41.0117 50.9835 40.9674 50.7635 40.8789 50.6046C40.793 50.4458 40.6719 50.3325 40.5156 50.2648C40.362 50.1971 40.1836 50.1632 39.9805 50.1632C39.7409 50.1632 39.5378 50.2127 39.3711 50.3116C39.207 50.408 39.0729 50.5343 38.9688 50.6906C38.8672 50.8442 38.7917 51.0096 38.7422 51.1866C38.6927 51.3611 38.6667 51.5278 38.6641 51.6866ZM41.4727 51.3195L41.1602 51.3273C41.1732 51.1215 41.2201 50.9249 41.3008 50.7374C41.3841 50.5499 41.4974 50.3833 41.6406 50.2374C41.7839 50.089 41.9544 49.9718 42.1523 49.8859C42.3529 49.7999 42.5781 49.757 42.8281 49.757C43.0469 49.757 43.2422 49.7869 43.4141 49.8468C43.5859 49.9041 43.7305 49.9965 43.8477 50.1241C43.9674 50.2491 44.0586 50.4093 44.1211 50.6046C44.1836 50.7999 44.2148 51.0343 44.2148 51.3077V54.0616H43.7461V51.3038C43.7461 51.0044 43.7018 50.7726 43.6133 50.6085C43.5273 50.4419 43.4076 50.326 43.2539 50.2609C43.1003 50.1958 42.9206 50.1632 42.7148 50.1632C42.5117 50.1658 42.3333 50.2036 42.1797 50.2765C42.026 50.3468 41.8971 50.4406 41.793 50.5577C41.6914 50.6723 41.6133 50.796 41.5586 50.9288C41.5065 51.0616 41.4779 51.1919 41.4727 51.3195ZM45.1445 52.0148V51.8859C45.1445 51.5786 45.1888 51.2947 45.2773 51.0343C45.3659 50.7739 45.4922 50.5486 45.6562 50.3585C45.8229 50.1684 46.0221 50.0213 46.2539 49.9171C46.4857 49.8103 46.7435 49.757 47.0273 49.757C47.3138 49.757 47.5729 49.8103 47.8047 49.9171C48.0365 50.0213 48.2357 50.1684 48.4023 50.3585C48.569 50.5486 48.6966 50.7739 48.7852 51.0343C48.8737 51.2947 48.918 51.5786 48.918 51.8859V52.0148C48.918 52.3221 48.8737 52.6059 48.7852 52.8663C48.6966 53.1241 48.569 53.3481 48.4023 53.5382C48.2383 53.7283 48.0404 53.8767 47.8086 53.9835C47.5768 54.0877 47.319 54.1398 47.0352 54.1398C46.7487 54.1398 46.4896 54.0877 46.2578 53.9835C46.026 53.8767 45.8268 53.7283 45.6602 53.5382C45.4935 53.3481 45.3659 53.1241 45.2773 52.8663C45.1888 52.6059 45.1445 52.3221 45.1445 52.0148ZM45.6094 51.8859V52.0148C45.6094 52.2465 45.6406 52.4666 45.7031 52.6749C45.7656 52.8807 45.8568 53.0642 45.9766 53.2257C46.0964 53.3846 46.2448 53.5096 46.4219 53.6007C46.599 53.6919 46.8034 53.7374 47.0352 53.7374C47.2643 53.7374 47.4661 53.6919 47.6406 53.6007C47.8177 53.5096 47.9661 53.3846 48.0859 53.2257C48.2057 53.0642 48.2956 52.8807 48.3555 52.6749C48.418 52.4666 48.4492 52.2465 48.4492 52.0148V51.8859C48.4492 51.6567 48.418 51.4392 48.3555 51.2335C48.2956 51.0278 48.2044 50.8442 48.082 50.6827C47.9622 50.5213 47.8138 50.3937 47.6367 50.2999C47.4596 50.2062 47.2565 50.1593 47.0273 50.1593C46.7982 50.1593 46.5951 50.2062 46.418 50.2999C46.2435 50.3937 46.0951 50.5213 45.9727 50.6827C45.8529 50.8442 45.7617 51.0278 45.6992 51.2335C45.6393 51.4392 45.6094 51.6567 45.6094 51.8859ZM50.3516 50.5343V54.0616H49.8867V49.8351H50.3398L50.3516 50.5343ZM51.8477 49.8038L51.8359 50.2335C51.7839 50.2257 51.7331 50.2192 51.6836 50.214C51.6341 50.2088 51.5807 50.2062 51.5234 50.2062C51.3203 50.2062 51.1419 50.2439 50.9883 50.3195C50.8372 50.3924 50.7096 50.4952 50.6055 50.6281C50.5013 50.7583 50.4219 50.9119 50.3672 51.089C50.3125 51.2635 50.2812 51.451 50.2734 51.6515L50.1016 51.7179C50.1016 51.4419 50.1302 51.1853 50.1875 50.9484C50.2448 50.7114 50.332 50.5044 50.4492 50.3273C50.569 50.1476 50.7188 50.0083 50.8984 49.9093C51.0807 49.8077 51.2943 49.757 51.5391 49.757C51.599 49.757 51.6576 49.7622 51.7148 49.7726C51.7747 49.7804 51.819 49.7908 51.8477 49.8038ZM54.1367 54.1398C53.8607 54.1398 53.6068 54.089 53.375 53.9874C53.1458 53.8859 52.9453 53.7426 52.7734 53.5577C52.6042 53.3728 52.4727 53.1541 52.3789 52.9015C52.2878 52.6463 52.2422 52.3676 52.2422 52.0656V51.8976C52.2422 51.5721 52.2904 51.2778 52.3867 51.0148C52.4831 50.7517 52.6159 50.5265 52.7852 50.339C52.9544 50.1515 53.1471 50.0083 53.3633 49.9093C53.582 49.8077 53.8112 49.757 54.0508 49.757C54.319 49.757 54.5573 49.8051 54.7656 49.9015C54.974 49.9952 55.1484 50.1294 55.2891 50.3038C55.4323 50.4757 55.5404 50.6801 55.6133 50.9171C55.6862 51.1515 55.7227 51.4106 55.7227 51.6945V51.9796H52.5234V51.5812H55.2578V51.5265C55.2526 51.2895 55.2044 51.0682 55.1133 50.8624C55.0247 50.6541 54.8919 50.4848 54.7148 50.3546C54.5378 50.2244 54.3164 50.1593 54.0508 50.1593C53.8529 50.1593 53.6706 50.201 53.5039 50.2843C53.3398 50.3676 53.1979 50.4874 53.0781 50.6437C52.9609 50.7973 52.8698 50.9809 52.8047 51.1945C52.7422 51.4054 52.7109 51.6398 52.7109 51.8976V52.0656C52.7109 52.2999 52.7448 52.5187 52.8125 52.7218C52.8828 52.9223 52.9818 53.0994 53.1094 53.2531C53.2396 53.4067 53.3932 53.5265 53.5703 53.6124C53.7474 53.6984 53.9427 53.7413 54.1562 53.7413C54.4062 53.7413 54.6276 53.6958 54.8203 53.6046C55.013 53.5109 55.1862 53.3637 55.3398 53.1632L55.6328 53.3898C55.5417 53.5252 55.4271 53.6502 55.2891 53.7648C55.1536 53.8794 54.9909 53.9705 54.8008 54.0382C54.6107 54.1059 54.3893 54.1398 54.1367 54.1398Z" fill="white"/>
</svg>
