<svg width="44" height="41" viewBox="0 0 44 41" fill="none" xmlns="http://www.w3.org/2000/svg">
<path d="M20.8324 21.5005C16.6083 22.9264 13.9349 19.5992 8.54568 17.5792C0.716799 14.6086 -0.255252 9.85551 2.80134 7.71664C5.73179 5.57777 10.3911 8.19194 13.9791 6.6472C17.7041 5.34012 18.8764 0.587086 22.7705 0.230608C26.5385 -0.125869 29.6172 3.79539 26.4082 10.9249C24.2268 15.678 25.0458 19.8369 20.8324 21.5005Z" fill="#839AA9"/>
<path d="M12.1366 28.2746C13.0913 24.2809 11.5335 20.5293 8.85103 19.8031C6.16854 19.077 3.14028 21.8605 2.31174 25.8542C1.35702 29.8479 2.78863 33.5996 5.59729 34.3257C8.40595 35.0518 11.1819 32.2683 12.1366 28.2746Z" fill="#839AA9"/>
<path d="M32.5021 20.0048C28.6889 17.9657 26.867 14.5672 28.3092 12.4148C29.7515 10.2624 33.9856 10.2624 37.6757 12.4148C41.4889 14.4539 43.3108 17.8524 41.8686 20.0048C40.4263 22.1572 36.1922 22.1572 32.5021 20.0048Z" fill="#839AA9"/>
<path d="M24.9147 31.5815C23.7946 27.3065 20.4797 24.253 17.4575 24.7416C14.4354 25.2301 12.8972 29.2608 14.0173 33.5358C15.1374 37.8108 18.4523 40.8643 21.4744 40.3757C24.4966 39.8872 26.0348 35.8565 24.9147 31.5815Z" fill="#839AA9"/>
<path d="M26.4467 31.5535C23.9033 27.9743 23.8509 24.0486 26.2948 22.6631C28.7388 21.2776 32.7025 23.0095 35.246 26.5887C37.7894 30.168 37.8418 34.0936 35.3979 35.4792C32.9539 36.8647 28.9901 35.1328 26.4467 31.5535Z" fill="#839AA9"/>
</svg>
