<svg width="46" height="41" viewBox="0 0 46 41" fill="none" xmlns="http://www.w3.org/2000/svg">
<path d="M21.8001 19.873C17.3461 18.4818 15.1048 21.7278 9.94653 23.6986C2.45813 26.5968 2.12704 31.234 5.50114 33.3207C8.74806 35.4074 13.0892 32.857 16.918 34.3641C20.8524 35.6393 22.6836 40.2764 26.6588 40.6242C30.5068 40.972 33.0757 37.1464 28.8664 30.1906C26.0178 25.5535 26.2757 21.496 21.8001 19.873Z" fill="#839AA9"/>
<path d="M12.7449 13.5284C14.2529 17.4245 13.1944 21.0845 10.5886 21.7929C7.98286 22.5013 4.54918 19.7858 3.16835 15.8897C1.6603 11.9936 2.59159 8.33356 5.3246 7.62518C8.0576 6.91679 11.2368 9.63227 12.7449 13.5284Z" fill="#839AA9"/>
<path d="M33.8709 20.9844C30.3043 22.9737 28.9313 26.2892 30.6794 28.3891C32.4276 30.4889 36.6971 30.4889 40.1241 28.3891C43.6907 26.3998 45.0637 23.0842 43.3155 20.9844C41.5673 18.8846 37.2978 18.8846 33.8709 20.9844Z" fill="#839AA9"/>
<path d="M25.3133 9.52222C24.7677 13.6926 21.8423 16.6714 18.7284 16.1948C15.6145 15.7182 13.5132 11.7861 14.0589 7.61576C14.6045 3.44537 17.5299 0.466525 20.6438 0.94314C23.7577 1.41976 25.859 5.35183 25.3133 9.52222Z" fill="#839AA9"/>
<path d="M26.5664 9.28164C24.4906 12.7733 24.9738 16.603 27.6271 17.9546C30.2805 19.3062 34.0406 17.6167 36.1163 14.125C38.1921 10.6333 37.7089 6.80366 35.0556 5.45203C32.4022 4.10041 28.6421 5.78993 26.5664 9.28164Z" fill="#839AA9"/>
</svg>
