<svg width="92" height="20" viewBox="0 0 92 20" fill="none" xmlns="http://www.w3.org/2000/svg">
<path d="M7.77846 11.2786C7.86919 13.1243 9.20862 13.3595 10.4573 14.9104C12.3047 17.1274 13.7911 16.4689 14.0436 14.8698C14.2823 13.3335 12.9833 12.237 12.8975 10.5948C12.8117 8.95255 14.0328 7.46768 13.6599 6.00083C13.2871 4.53398 11.7484 4.30098 10.1121 6.99556C9.00743 8.8547 7.73408 9.44813 7.77846 11.2786Z" fill="#FCB62A"/>
<path d="M4.98472 6.7291C6.0306 7.57866 7.27555 7.27543 7.71833 6.34013C8.16111 5.40483 7.626 3.76492 6.56709 2.97462C5.52121 2.12505 4.27625 2.42828 3.83348 3.36358C3.40373 4.23962 3.93884 5.87953 4.98472 6.7291Z" fill="#FF9F0E"/>
<path d="M2.39892 11.4654C3.63236 11.5312 4.75441 10.6854 4.89229 9.45121C5.01634 8.2798 4.12881 7.24962 2.85379 7.17023C1.62035 7.10441 0.498304 7.95019 0.360427 9.1844C0.236373 10.3558 1.16548 11.3996 2.39892 11.4654Z" fill="#FCB62A"/>
<path d="M2.98562 17.355C4.10651 17.3793 5.22576 16.4191 5.37948 15.1721C5.51918 13.9888 4.80115 12.6661 3.64273 12.6294C2.52183 12.6051 1.40258 13.5653 1.24887 14.8123C1.10916 15.9956 1.86472 17.3306 2.98562 17.355Z" fill="#FFAA00"/>
<path d="M19.28 16V7.248L18.96 5.648L19.28 4.672H24.048C24.816 4.672 25.552 4.74667 26.256 4.896C26.9707 5.03467 27.6053 5.30133 28.16 5.696C28.7253 6.09067 29.168 6.656 29.488 7.392C29.8187 8.128 29.984 9.08267 29.984 10.256C29.984 11.4293 29.8187 12.3947 29.488 13.152C29.1573 13.8987 28.7093 14.48 28.144 14.896C27.5787 15.312 26.9387 15.6 26.224 15.76C25.52 15.92 24.7947 16 24.048 16H19.28ZM22.192 13.44H24.048C24.9867 13.44 25.7067 13.1947 26.208 12.704C26.7093 12.2027 26.96 11.3867 26.96 10.256C26.96 9.12533 26.704 8.34133 26.192 7.904C25.6907 7.456 24.976 7.232 24.048 7.232H22.192V13.44ZM36.689 16.16C36.0063 16.16 35.3397 16.08 34.689 15.92C34.049 15.7493 33.4677 15.4507 32.945 15.024C32.433 14.5973 32.0223 14.0053 31.713 13.248C31.4143 12.4907 31.265 11.52 31.265 10.336C31.265 9.152 31.4143 8.18133 31.713 7.424C32.0223 6.66667 32.433 6.07467 32.945 5.648C33.4677 5.22133 34.049 4.928 34.689 4.768C35.3397 4.59733 36.0063 4.512 36.689 4.512C37.3717 4.512 38.033 4.59733 38.673 4.768C39.3237 4.93867 39.905 5.23733 40.417 5.664C40.9397 6.09067 41.3503 6.68267 41.649 7.44C41.9583 8.19733 42.113 9.16267 42.113 10.336C42.113 11.5093 41.9583 12.4747 41.649 13.232C41.3503 13.9893 40.9397 14.5813 40.417 15.008C39.905 15.4347 39.3237 15.7333 38.673 15.904C38.033 16.0747 37.3717 16.16 36.689 16.16ZM36.689 13.44C37.4783 13.44 38.0757 13.2053 38.481 12.736C38.8863 12.2667 39.089 11.4667 39.089 10.336C39.089 9.20533 38.8863 8.40533 38.481 7.936C38.0757 7.46667 37.4783 7.232 36.689 7.232C35.9103 7.232 35.3183 7.472 34.913 7.952C34.5077 8.432 34.305 9.22667 34.305 10.336C34.305 11.4453 34.5077 12.24 34.913 12.72C35.3183 13.2 35.9103 13.44 36.689 13.44ZM49.454 16.16C48.6327 16.16 47.854 16.08 47.118 15.92C46.3927 15.7493 45.7473 15.4507 45.182 15.024C44.6273 14.5973 44.19 14.0053 43.87 13.248C43.55 12.4907 43.39 11.52 43.39 10.336C43.39 9.19467 43.5607 8.25067 43.902 7.504C44.2433 6.74667 44.6967 6.14933 45.262 5.712C45.838 5.27467 46.4727 4.96533 47.166 4.784C47.87 4.60267 48.5793 4.512 49.294 4.512C49.8167 4.512 50.27 4.53867 50.654 4.592C51.038 4.64533 51.406 4.71467 51.758 4.8L53.934 6.064L52.814 8.544L49.278 7.296C48.766 7.296 48.2913 7.39733 47.854 7.6C47.4273 7.80267 47.0807 8.128 46.814 8.576C46.558 9.01333 46.43 9.60533 46.43 10.352C46.43 11.5573 46.6967 12.4053 47.23 12.896C47.774 13.376 48.5153 13.616 49.454 13.616C49.934 13.616 50.3073 13.5947 50.574 13.552C50.8513 13.4987 51.0647 13.456 51.214 13.424V12.208H49.182V9.84H54.27L54.446 10.8L54.094 12.128V15.488C53.9767 15.5307 53.71 15.6053 53.294 15.712C52.8887 15.8187 52.3553 15.92 51.694 16.016C51.0433 16.112 50.2967 16.16 49.454 16.16ZM60.4278 16.14C59.8771 16.14 59.3218 16.0607 58.7618 15.902C58.2111 15.7433 57.7024 15.4773 57.2358 15.104C56.7784 14.7213 56.4098 14.2033 56.1298 13.55C55.8498 12.8873 55.7098 12.052 55.7098 11.044C55.7098 10.0267 55.9058 9.14 56.2978 8.384C56.6991 7.61867 57.2451 7.02133 57.9358 6.592C58.6264 6.16267 59.4104 5.948 60.2878 5.948C60.7078 5.948 61.1091 5.98533 61.4918 6.06C61.8838 6.13467 62.1824 6.21867 62.3878 6.312L63.9418 7.726L62.9618 9.196L60.5678 7.964C60.0451 7.964 59.5738 8.09 59.1538 8.342C58.7338 8.594 58.3978 8.95333 58.1458 9.42C57.9031 9.87733 57.7818 10.4187 57.7818 11.044C57.7818 11.7627 57.9078 12.3553 58.1598 12.822C58.4211 13.2887 58.7758 13.6387 59.2238 13.872C59.6718 14.096 60.1711 14.208 60.7218 14.208C61.2818 14.208 61.7624 14.1613 62.1637 14.068C62.5651 13.9653 62.9011 13.8533 63.1718 13.732C63.4424 13.6013 63.6478 13.4893 63.7878 13.396V15.3C63.5264 15.4773 63.1251 15.664 62.5838 15.86C62.0518 16.0467 61.3331 16.14 60.4278 16.14ZM65.5653 16L65.2853 15.16L65.5653 13.76V6.088H67.5253V11.842L67.3853 14.18H67.6653L70.7313 14.04L71.7253 13.9L72.6773 15.104L71.9913 16H65.5653ZM77.0461 16.14C76.0847 16.14 75.3287 15.9813 74.7781 15.664C74.2367 15.3467 73.8494 14.88 73.6161 14.264C73.3921 13.6387 73.2801 12.878 73.2801 11.982V8.342L73.2941 6.928L73.2801 6.088H75.2681V12.122C75.2681 12.7753 75.3987 13.3073 75.6601 13.718C75.9214 14.1193 76.3834 14.32 77.0461 14.32C77.7087 14.32 78.1754 14.1333 78.4461 13.76C78.7261 13.3773 78.8661 12.8313 78.8661 12.122V6.088H80.8121V11.982C80.8121 12.8593 80.7001 13.6107 80.4761 14.236C80.2614 14.852 79.8787 15.3233 79.3281 15.65C78.7867 15.9767 78.0261 16.14 77.0461 16.14ZM82.6278 16V8.328L82.3478 6.928L82.6278 6.088H86.2678C86.9771 6.088 87.5885 6.172 88.1018 6.34C88.6245 6.49867 89.0305 6.76 89.3198 7.124C89.6091 7.488 89.7538 7.97333 89.7538 8.58C89.7538 8.95333 89.6885 9.308 89.5578 9.644C89.4365 9.97067 89.2265 10.246 88.9278 10.47C89.5158 10.6753 89.9638 10.9833 90.2718 11.394C90.5798 11.8047 90.7338 12.3507 90.7338 13.032C90.7338 14.068 90.4445 14.824 89.8658 15.3C89.2871 15.7667 88.4145 16 87.2478 16H82.6278ZM84.5878 10.078H86.5198C87.3038 10.078 87.6958 9.73267 87.6958 9.042C87.6958 8.69667 87.6165 8.42133 87.4578 8.216C87.2991 8.01067 86.9865 7.908 86.5198 7.908H84.5878V10.078ZM84.5878 14.18H87.1078C87.6025 14.18 87.9618 14.068 88.1858 13.844C88.4191 13.62 88.5358 13.3073 88.5358 12.906C88.5358 12.5233 88.4098 12.234 88.1578 12.038C87.9151 11.842 87.5185 11.744 86.9678 11.744H84.5878V14.18Z" fill="#FF9F0E"/>
</svg>
