<svg width="193" height="145" viewBox="0 0 193 145" fill="none" xmlns="http://www.w3.org/2000/svg">
<path d="M153.977 24.4344C150.244 65.7695 119.001 100.823 84.3397 102.89C84.0731 101.856 83.0783 100.944 83.3449 99.9103C87.8774 82.3429 79.2308 69.3088 66.433 58.2C56.5679 49.4163 45.6736 42.4311 32.6091 39.331C28.8764 38.556 25.6654 37.3448 21.6661 37.3448C7.00192 37.0864 -0.824805 45.9772 0.774926 60.1862C1.84141 69.7449 7.30864 77.0453 13.7076 84.0206C24.6391 96.1628 38.4978 105.151 54.4951 110.834C57.6946 111.868 60.9056 113.257 65.4381 114.807C51.3072 132.116 30.9147 136.85 11.7179 144.6C15.184 144.6 18.2 145.117 21.6661 144.6C39.5298 140.725 56.6196 133.683 69.4174 120.765C73.1501 117.149 76.4844 114.807 82.3501 114.807C105.013 114.549 123.129 105.262 138.06 88.9862C149.258 76.844 157.598 62.7765 162.93 47.2758C164.263 43.4007 165.505 39.5726 167.904 33.3724C175.903 44.7395 182.858 54.3415 189.79 64.1586C190.59 63.9002 190.98 63.4238 191.78 63.1655C192.047 61.0987 193.575 58.0222 192.775 56.2137C189.042 47.43 185.103 38.9184 180.837 30.3931C176.838 22.6427 171.904 15.302 167.904 7.55168C163.905 0.0596924 160.038 -1.6279 154.972 4.57237C146.173 15.1645 138.1 25.9776 130.101 37.3448C129.035 38.8948 129.835 41.9714 130.101 44.2965C132.768 43.7798 136.46 43.8604 138.06 42.3103C143.659 36.6267 148.111 31.1514 153.977 24.4344ZM73.3967 103.883C47.2677 99.4909 26.772 87.6276 13.7076 65.1517C11.0414 60.2431 8.90838 54.1303 13.7076 50.2551C16.907 47.6717 23.1025 46.7591 27.635 47.2758C44.9655 49.8593 58.2193 59.4445 69.4174 72.1034C77.1494 81.1454 80.0622 90.9655 73.3967 103.883Z" fill="#FFAA00"/>
</svg>
